<mxfile host="app.diagrams.net" modified="2020-10-23T06:32:15.964Z" agent="5.0 (Macintosh; Intel Mac OS X 10_15_4) AppleWebKit/537.36 (KHTML, like Gecko) Chrome/85.0.4183.121 Safari/537.36" etag="miSV7gzP3fIiBOeYKO2i" version="13.8.1" type="github">
  <diagram id="4u30hbUxO8NpbM6vlSp2" name="Page-1">
    <mxGraphModel dx="1298" dy="690" grid="1" gridSize="10" guides="1" tooltips="1" connect="1" arrows="1" fold="1" page="1" pageScale="1" pageWidth="827" pageHeight="1169" math="0" shadow="0">
      <root>
        <mxCell id="0" />
        <mxCell id="1" parent="0" />
        <mxCell id="WFJCOm-zHOWdiBq46_4i-11" value="" style="edgeStyle=orthogonalEdgeStyle;rounded=0;orthogonalLoop=1;jettySize=auto;html=1;" edge="1" parent="1" source="WFJCOm-zHOWdiBq46_4i-2" target="WFJCOm-zHOWdiBq46_4i-3">
          <mxGeometry relative="1" as="geometry" />
        </mxCell>
        <mxCell id="WFJCOm-zHOWdiBq46_4i-2" value="样本准备" style="rounded=0;whiteSpace=wrap;html=1;" vertex="1" parent="1">
          <mxGeometry x="150" y="200" width="90" height="40" as="geometry" />
        </mxCell>
        <mxCell id="WFJCOm-zHOWdiBq46_4i-12" value="" style="edgeStyle=orthogonalEdgeStyle;rounded=0;orthogonalLoop=1;jettySize=auto;html=1;" edge="1" parent="1" source="WFJCOm-zHOWdiBq46_4i-3" target="WFJCOm-zHOWdiBq46_4i-4">
          <mxGeometry relative="1" as="geometry" />
        </mxCell>
        <mxCell id="WFJCOm-zHOWdiBq46_4i-3" value="模型训练" style="rounded=0;whiteSpace=wrap;html=1;" vertex="1" parent="1">
          <mxGeometry x="270" y="200" width="90" height="40" as="geometry" />
        </mxCell>
        <mxCell id="WFJCOm-zHOWdiBq46_4i-13" value="" style="edgeStyle=orthogonalEdgeStyle;rounded=0;orthogonalLoop=1;jettySize=auto;html=1;" edge="1" parent="1" source="WFJCOm-zHOWdiBq46_4i-4" target="WFJCOm-zHOWdiBq46_4i-5">
          <mxGeometry relative="1" as="geometry" />
        </mxCell>
        <mxCell id="WFJCOm-zHOWdiBq46_4i-4" value="模型&lt;span style=&quot;color: rgba(0 , 0 , 0 , 0) ; font-family: monospace ; font-size: 0px&quot;&gt;%3CmxGraphModel%3E%3Croot%3E%3CmxCell%20id%3D%220%22%2F%3E%3CmxCell%20id%3D%221%22%20parent%3D%220%22%2F%3E%3CmxCell%20id%3D%222%22%20value%3D%22%E7%BA%BF%E4%B8%8A%E4%BD%BF%E7%94%A8%22%20style%3D%22rounded%3D0%3BwhiteSpace%3Dwrap%3Bhtml%3D1%3B%22%20vertex%3D%221%22%20parent%3D%221%22%3E%3CmxGeometry%20x%3D%22510%22%20y%3D%22200%22%20width%3D%2290%22%20height%3D%2240%22%20as%3D%22geometry%22%2F%3E%3C%2FmxCell%3E%3C%2Froot%3E%3C%2FmxGraphModel%3E&lt;/span&gt;&lt;span style=&quot;color: rgba(0 , 0 , 0 , 0) ; font-family: monospace ; font-size: 0px&quot;&gt;%3CmxGraphModel%3E%3Croot%3E%3CmxCell%20id%3D%220%22%2F%3E%3CmxCell%20id%3D%221%22%20parent%3D%220%22%2F%3E%3CmxCell%20id%3D%222%22%20value%3D%22%E7%BA%BF%E4%B8%8A%E4%BD%BF%E7%94%A8%22%20style%3D%22rounded%3D0%3BwhiteSpace%3Dwrap%3Bhtml%3D1%3B%22%20vertex%3D%221%22%20parent%3D%221%22%3E%3CmxGeometry%20x%3D%22510%22%20y%3D%22200%22%20width%3D%2290%22%20height%3D%2240%22%20as%3D%22geometry%22%2F%3E%3C%2FmxCell%3E%3C%2Froot%3E%3C%2FmxGraphModel%3E&lt;/span&gt;" style="rounded=0;whiteSpace=wrap;html=1;" vertex="1" parent="1">
          <mxGeometry x="390" y="200" width="90" height="40" as="geometry" />
        </mxCell>
        <mxCell id="WFJCOm-zHOWdiBq46_4i-14" value="" style="edgeStyle=orthogonalEdgeStyle;rounded=0;orthogonalLoop=1;jettySize=auto;html=1;" edge="1" parent="1" source="WFJCOm-zHOWdiBq46_4i-5" target="WFJCOm-zHOWdiBq46_4i-6">
          <mxGeometry relative="1" as="geometry" />
        </mxCell>
        <mxCell id="WFJCOm-zHOWdiBq46_4i-18" value="" style="edgeStyle=orthogonalEdgeStyle;rounded=0;orthogonalLoop=1;jettySize=auto;html=1;" edge="1" parent="1" source="WFJCOm-zHOWdiBq46_4i-5" target="WFJCOm-zHOWdiBq46_4i-17">
          <mxGeometry relative="1" as="geometry" />
        </mxCell>
        <mxCell id="WFJCOm-zHOWdiBq46_4i-5" value="质量控制" style="rounded=0;whiteSpace=wrap;html=1;" vertex="1" parent="1">
          <mxGeometry x="510" y="200" width="90" height="40" as="geometry" />
        </mxCell>
        <mxCell id="WFJCOm-zHOWdiBq46_4i-6" value="线上使用" style="rounded=0;whiteSpace=wrap;html=1;" vertex="1" parent="1">
          <mxGeometry x="630" y="200" width="90" height="40" as="geometry" />
        </mxCell>
        <mxCell id="WFJCOm-zHOWdiBq46_4i-10" value="" style="edgeStyle=orthogonalEdgeStyle;rounded=0;orthogonalLoop=1;jettySize=auto;html=1;" edge="1" parent="1" source="WFJCOm-zHOWdiBq46_4i-9" target="WFJCOm-zHOWdiBq46_4i-4">
          <mxGeometry relative="1" as="geometry" />
        </mxCell>
        <mxCell id="WFJCOm-zHOWdiBq46_4i-9" value="1.商户信息&lt;br&gt;2.推荐理由" style="rounded=0;whiteSpace=wrap;html=1;" vertex="1" parent="1">
          <mxGeometry x="390" y="120" width="90" height="40" as="geometry" />
        </mxCell>
        <mxCell id="WFJCOm-zHOWdiBq46_4i-17" value="1.商户相关性&lt;br&gt;2.语言模型分" style="rounded=0;whiteSpace=wrap;html=1;" vertex="1" parent="1">
          <mxGeometry x="510" y="260" width="90" height="40" as="geometry" />
        </mxCell>
      </root>
    </mxGraphModel>
  </diagram>
</mxfile>
